<svg aria-hidden="true" style="position: absolute; width: 0; height: 0; overflow: hidden;" version="1.1" xmlns="http://www.w3.org/2000/svg" xmlns:xlink="http://www.w3.org/1999/xlink">
<defs>
<symbol id="icon-favorite" viewBox="0 0 32 32">
<path fill="#fbfbfb" style="fill: var(--color2, #fbfbfb)" d="M26 14c0 5.523-4.477 10-10 10s-10-4.477-10-10c0-5.523 4.477-10 10-10s10 4.477 10 10z"></path>
<path fill="#5671ff" style="fill: var(--color3, #5671ff)" d="M16.014 0h-0.029c-7.316 0-13.25 5.931-13.25 13.25 0 8.181 8.553 16.826 12.716 18.637 0.175 0.076 0.363 0.115 0.553 0.115s0.378-0.039 0.553-0.115c4.162-1.813 12.702-10.457 12.702-18.637 0.003-7.319-5.929-13.25-13.245-13.25zM22.223 12.301c-0.598 0.745-1.223 1.516-1.848 2.302-0.125 0.155-0.193 0.348-0.194 0.547 0 0.976-0.021 1.952-0.063 2.927-0.029 0.596-0.634 1.072-1.166 0.9-0.875-0.281-1.764-0.593-2.671-0.924-0.182-0.066-0.381-0.066-0.563 0-0.907 0.331-1.799 0.642-2.671 0.924-0.532 0.172-1.136-0.304-1.166-0.9-0.042-0.975-0.063-1.951-0.063-2.927-0.001-0.199-0.069-0.392-0.194-0.547-0.625-0.786-1.246-1.557-1.846-2.302-0.369-0.455-0.114-1.125 0.479-1.316 0.965-0.303 1.927-0.611 2.883-0.914 0.193-0.062 0.36-0.185 0.476-0.352 0.578-0.832 1.149-1.669 1.698-2.5 0.072-0.118 0.173-0.215 0.293-0.283s0.256-0.103 0.394-0.103c0.138 0 0.274 0.036 0.394 0.103s0.221 0.165 0.293 0.283c0.549 0.832 1.121 1.669 1.698 2.5 0.116 0.166 0.283 0.29 0.476 0.352 0.956 0.303 1.918 0.611 2.883 0.914 0.587 0.189 0.843 0.861 0.474 1.316z"></path>
</symbol>
<symbol id="icon-logo" viewBox="0 0 38 32">
<path fill="#f5f5f5" style="fill: var(--color1, #f5f5f5)" opacity="0.2" d="M35.2 16c0 8.733-7.163 15.812-16 15.812s-16-7.079-16-15.812c0-8.733 7.163-15.812 16-15.812s16 7.079 16 15.812z"></path>
<path fill="#f5f5f5" style="fill: var(--color1, #f5f5f5)" d="M30.147 22.747c-0.364 0.070-7.408 1.331-10.947-3.25-2.814 3.611-7.802 3.725-10.892 3.264-8.992-2.473-8.3-11.873-8.293-11.964 0.010-0.139 0.062-0.272 0.147-0.381s0.202-0.189 0.333-0.229c0.13-0.040 0.27-0.041 0.4-0.001s0.247 0.118 0.334 0.225c0.021 0.028 2.257 2.795 5.144 2.9 1.606 0.070 3.173-0.755 4.582-2.304 1.707-1.386 5.684-2.441 8.245 0.868 0.872-1.135 2.122-1.902 3.512-2.158 1.68-0.19 3.369 0.27 4.733 1.289 1.41 1.549 2.976 2.375 4.582 2.305 2.888-0.105 5.124-2.872 5.144-2.9 0.088-0.105 0.204-0.182 0.334-0.221s0.268-0.037 0.398 0.004c0.129 0.041 0.244 0.12 0.33 0.227s0.139 0.238 0.152 0.375c0.007 0.091 0.7 9.492-8.238 11.95z"></path>
</symbol>
<symbol id="icon-community" viewBox="0 0 32 32">
<path fill="#fbfbfb" style="fill: var(--color1, #fbfbfb)" d="M16 0c8.837 0 16 7.163 16 16s-7.163 16-16 16c-8.837 0-16-7.163-16-16s7.163-16 16-16z"></path>
<path fill="#5671ff" style="fill: var(--color2, #5671ff)" d="M16 14.286c1.668 0 3.021-1.353 3.021-3.021s-1.352-3.021-3.021-3.021c-1.668 0-3.021 1.352-3.021 3.021s1.352 3.021 3.021 3.021z"></path>
<path fill="#5671ff" style="fill: var(--color2, #5671ff)" d="M22.111 14.286c1.055 0 1.91-0.855 1.91-1.91s-0.855-1.91-1.91-1.91c-1.055 0-1.91 0.855-1.91 1.91s0.855 1.91 1.91 1.91z"></path>
<path fill="#5671ff" style="fill: var(--color2, #5671ff)" d="M9.889 14.286c1.055 0 1.91-0.855 1.91-1.91s-0.855-1.91-1.91-1.91c-1.055 0-1.91 0.855-1.91 1.91s0.855 1.91 1.91 1.91z"></path>
<path fill="#5671ff" style="fill: var(--color2, #5671ff)" d="M11.771 16.001c-0.752-0.616-1.433-0.534-2.302-0.534-1.3 0-2.358 1.051-2.358 2.343v3.792c0 0.561 0.458 1.017 1.021 1.017 2.431 0 2.139 0.044 2.139-0.105 0-2.687-0.318-4.657 1.5-6.514z"></path>
<path fill="#5671ff" style="fill: var(--color2, #5671ff)" d="M16.827 15.48c-1.518-0.127-2.838 0.001-3.976 0.941-1.905 1.526-1.538 3.58-1.538 6.093 0 0.665 0.541 1.216 1.216 1.216 7.329 0 7.621 0.236 8.056-0.726 0.143-0.326 0.104-0.222 0.104-3.336 0-2.473-2.141-4.188-3.861-4.188z"></path>
<path fill="#5671ff" style="fill: var(--color2, #5671ff)" d="M22.531 15.466c-0.874 0-1.551-0.081-2.302 0.534 1.804 1.842 1.5 3.678 1.5 6.514 0 0.15-0.243 0.105 2.102 0.105 0.583 0 1.058-0.473 1.058-1.053v-3.756c0-1.292-1.058-2.343-2.358-2.343z"></path>
</symbol>
<symbol id="icon-link" viewBox="0 0 32 32">
<path d="M18.461 23.021l-4.349 4.349c-2.653 2.582-6.897 2.525-9.479-0.128-2.532-2.602-2.533-6.747-0.001-9.349l4.349-4.353c0.521-0.521 0.52-1.365-0.001-1.886s-1.365-0.52-1.886 0.001l-4.348 4.353c-3.658 3.66-3.657 9.593 0.003 13.251s9.593 3.657 13.251-0.003l4.349-4.349c0.511-0.53 0.497-1.374-0.033-1.885-0.517-0.499-1.336-0.499-1.852 0h-0.004v-0z"></path>
<path d="M29.258 2.748c-1.752-1.764-4.138-2.754-6.625-2.748-2.485-0.007-4.87 0.981-6.623 2.742l-4.355 4.35c-0.521 0.521-0.521 1.365-0.001 1.886s1.365 0.521 1.886 0.001l4.353-4.349c1.254-1.261 2.96-1.968 4.738-1.964 3.702 0.001 6.702 3.003 6.701 6.705-0.001 1.777-0.707 3.481-1.963 4.737l-4.349 4.349c-0.521 0.521-0.521 1.365 0 1.886s1.366 0.521 1.887 0l4.349-4.346c3.653-3.661 3.654-9.588 0.003-13.25z"></path>
<path d="M19.058 11.057l-7.999 7.999c-0.53 0.512-0.544 1.356-0.033 1.885s1.356 0.544 1.885 0.033c0.011-0.011 0.022-0.022 0.033-0.033l7.999-7.999c0.511-0.53 0.497-1.374-0.033-1.885-0.517-0.499-1.336-0.499-1.852 0z"></path>
</symbol>
<symbol id="icon-youtube" viewBox="0 0 43 32">
<path fill="#5671ff" style="fill: var(--color1, #5671ff)" d="M41.004 3.564c-1.54-1.831-4.384-2.578-9.814-2.578h-19.713c-5.555 0-8.447 0.795-9.981 2.744-1.496 1.9-1.496 4.701-1.496 8.576v7.387c0 7.508 1.775 11.32 11.477 11.32h19.713c4.709 0 7.319-0.659 9.007-2.275 1.731-1.657 2.47-4.362 2.47-9.045v-7.387c0-4.087-0.116-6.904-1.663-8.743zM27.392 17.020l-8.951 4.678c-0.2 0.105-0.419 0.156-0.637 0.156-0.247 0-0.494-0.067-0.713-0.199-0.412-0.25-0.663-0.696-0.663-1.177v-9.327c0-0.481 0.251-0.927 0.662-1.176s0.922-0.267 1.349-0.045l8.951 4.648c0.455 0.236 0.741 0.707 0.742 1.22s-0.284 0.984-0.739 1.222z"></path>
</symbol>
<symbol id="icon-telegram" viewBox="0 0 32 32">
<path fill="#5671ff" style="fill: var(--color2, #5671ff)" d="M4.099 12.617c-0.867 0.364-1.405 1.012-1.414 1.929-0.006 0.641 0.427 1.503 1.294 1.855 0.357 0.145 5.373 0.82 5.373 0.82s1.327 4.196 1.806 5.671c0.139 0.427 0.217 0.636 0.521 0.915 0.516 0.472 1.388 0.324 1.765-0.055 0.998-1 2.574-2.543 2.574-2.543l0.664 0.54c0 0 2.947 2.351 4.558 3.457 0.948 0.652 1.607 1.332 2.674 1.336 0.544 0.003 1.416-0.268 1.992-0.928 0.381-0.436 0.625-1.133 0.72-1.759 0.215-1.42 2.736-16.775 2.726-17.312-0.017-0.857-0.738-1.34-1.338-1.335-0.376 0.004-0.687 0.113-1.377 0.324-5.34 1.631-22.184 6.936-22.538 7.084zM24.019 9.209c0 0-7.037 6.125-9.849 8.944-0.901 0.903-0.965 2.452-0.965 2.452l-1.454-4.651 12.268-6.745z"></path>
</symbol>
<symbol id="icon-bots" viewBox="0 0 32 32">
<path fill="#5671ff" style="fill: var(--color2, #5671ff)" d="M26.4 13.269v-5.961c0.781-0.316 1.333-1.079 1.333-1.975 0-1.179-0.954-2.133-2.133-2.133-1.177 0-2.133 0.954-2.133 2.133 0 0.896 0.552 1.659 1.333 1.975v3.971c-2.294-2.357-5.388-3.812-8.8-3.812s-6.505 1.455-8.8 3.813v-3.972c0.781-0.316 1.333-1.079 1.333-1.975 0-1.179-0.954-2.133-2.133-2.133-1.178 0-2.133 0.954-2.133 2.133 0 0.896 0.552 1.659 1.333 1.975v5.962c-1.505 2.273-2.4 5.052-2.4 8.063 0 4.125 5.731 7.467 12.8 7.467 7.071 0 12.8-3.342 12.8-7.467 0-3.012-0.896-5.791-2.4-8.064zM16 23.466c-4.42 0-8-0.955-8-2.133 0-2.5 0.611-4.763 1.6-6.4 4.271 1.475 8.85 1.369 12.8 0 0.99 1.637 1.6 3.9 1.6 6.4 0 1.178-3.582 2.133-8 2.133z"></path>
<path fill="#5671ff" style="fill: var(--color2, #5671ff)" d="M21.334 20c0 0.738-0.596 1.333-1.333 1.333s-1.333-0.596-1.333-1.333c0-0.737 0.596-1.334 1.333-1.334s1.333 0.597 1.333 1.334z"></path>
<path fill="#5671ff" style="fill: var(--color2, #5671ff)" d="M13.333 20c0 0.738-0.596 1.333-1.333 1.333s-1.333-0.596-1.333-1.333c0-0.737 0.596-1.334 1.333-1.334s1.333 0.597 1.333 1.334z"></path>
</symbol>
<symbol id="icon-star" viewBox="0 0 32 32">
<path fill="#fbfbfb" style="fill: var(--color2, #fbfbfb)" d="M1.769 16.534l4.747 3.467-1.803 5.583c-0.291 0.866-0.295 1.803-0.011 2.671s0.842 1.621 1.589 2.147c0.734 0.542 1.625 0.833 2.538 0.828s1.8-0.304 2.529-0.854l4.641-3.416 4.643 3.412c0.733 0.539 1.618 0.832 2.529 0.837s1.798-0.28 2.537-0.812c0.738-0.532 1.289-1.285 1.573-2.149s0.286-1.797 0.006-2.663l-1.803-5.583 4.747-3.467c0.732-0.535 1.277-1.288 1.555-2.151s0.277-1.792-0.004-2.655-0.827-1.614-1.561-2.147c-0.734-0.533-1.617-0.821-2.524-0.823h-5.831l-1.769-5.515c-0.278-0.868-0.825-1.625-1.561-2.163s-1.624-0.827-2.536-0.827c-0.911 0-1.799 0.289-2.536 0.827s-1.283 1.295-1.561 2.163l-1.769 5.515h-5.825c-0.907 0.001-1.79 0.289-2.524 0.823s-1.28 1.285-1.561 2.147c-0.281 0.862-0.282 1.792-0.004 2.655s0.823 1.616 1.555 2.151h-0.005z"></path>
</symbol>
<symbol id="icon-plus" viewBox="0 0 32 32">
<path fill="#fff" style="fill: var(--color3, #fff)" d="M17.28 14.179v-6.4h-2.56v6.4h-6.4v2.56h6.4v6.4h2.56v-6.4h6.4v-2.56h-6.4z"></path>
</symbol>
<symbol id="icon-support" viewBox="0 0 32 32">
<path fill="#fbfbfb" style="fill: var(--color2, #fbfbfb)" d="M5 13c0-6.075 4.925-11 11-11s11 4.925 11 11v1.126c1.725 0.444 3 2.010 3 3.874v4c0 2.209-1.791 4-4 4-0.231 0-0.457-0.020-0.677-0.057-1.369 2.603-4.159 4.2-7.123 4.047-0.066 0.007-0.132 0.010-0.2 0.010h-2c-1.105 0-2-0.895-2-2s0.895-2 2-2h2c1.044 0 1.902 0.8 1.992 1.821 1.473-0.381 2.753-1.35 3.503-2.702-0.912-0.733-1.495-1.858-1.495-3.119v-4c0-1.864 1.275-3.43 3-3.874v-1.126c0-4.971-4.029-9-9-9s-9 4.029-9 9v1.126c1.725 0.444 3 2.010 3 3.874v4c0 2.209-1.791 4-4 4s-4-1.791-4-4v-4c0-1.864 1.275-3.43 3-3.874v-1.126z"></path>
</symbol>
<symbol id="icon-profile" viewBox="0 0 32 32">
<path fill="#fbfbfb" style="fill: var(--color2, #fbfbfb)" d="M16 0.001c-8.836 0-16 7.163-16 15.999s7.164 15.999 16 15.999c8.837 0 16-7.163 16-15.999s-7.163-15.999-16-15.999zM16 4.785c2.924 0 5.293 2.37 5.293 5.292s-2.369 5.292-5.293 5.292c-2.922 0-5.291-2.369-5.291-5.292s2.369-5.292 5.291-5.292zM15.996 27.816c-2.916 0-5.587-1.062-7.646-2.82-0.502-0.428-0.791-1.056-0.791-1.714 0-2.964 2.399-5.336 5.363-5.336h6.158c2.965 0 5.355 2.372 5.355 5.336 0 0.659-0.288 1.285-0.791 1.713-2.059 1.758-4.731 2.82-7.647 2.82z"></path>
</symbol>
<symbol id="icon-ua-proxy" viewBox="0 0 32 32">
<path fill="#fbfbfb" style="fill: var(--color2, #fbfbfb)" d="M16 27.667c-0.736 0-1.333-0.597-1.333-1.333v-5.667c0-0.736 0.597-1.333 1.333-1.333s1.333 0.597 1.333 1.333v5.667c0 0.736-0.597 1.333-1.333 1.333z"></path>
<path fill="#fbfbfb" style="fill: var(--color2, #fbfbfb)" d="M17.667 30.667h-3.333c-0.552 0-1-0.448-1-1v-3.333c0-0.552 0.448-1 1-1h3.333c0.552 0 1 0.448 1 1v3.333c0 0.552-0.448 1-1 1z"></path>
<path fill="#fbfbfb" style="fill: var(--color2, #fbfbfb)" d="M14.333 29.333h-9c-0.736 0-1.333-0.597-1.333-1.333s0.597-1.333 1.333-1.333h9c0.736 0 1.333 0.597 1.333 1.333s-0.597 1.333-1.333 1.333z"></path>
<path fill="#fbfbfb" style="fill: var(--color2, #fbfbfb)" d="M26.667 29.333h-9c-0.736 0-1.333-0.597-1.333-1.333s0.597-1.333 1.333-1.333h9c0.736 0 1.333 0.597 1.333 1.333s-0.597 1.333-1.333 1.333z"></path>
<path fill="#fbfbfb" style="fill: var(--color2, #fbfbfb)" d="M27.333 1.334h-22.667c-2.573 0-4.667 2.093-4.667 4.667s2.093 4.667 4.667 4.667h22.667c2.573 0 4.667-2.093 4.667-4.667s-2.093-4.667-4.667-4.667zM4.667 8c-1.104 0-2-0.896-2-2s0.896-2 2-2c1.104 0 2 0.896 2 2s-0.896 2-2 2zM11.333 8c-1.104 0-2-0.896-2-2s0.896-2 2-2c1.104 0 2 0.896 2 2s-0.896 2-2 2z"></path>
<path fill="#fbfbfb" style="fill: var(--color2, #fbfbfb)" d="M27.333 13.334h-22.667c-2.573 0-4.667 2.093-4.667 4.667s2.093 4.667 4.667 4.667h22.667c2.573 0 4.667-2.093 4.667-4.667s-2.093-4.667-4.667-4.667zM4.667 20c-1.104 0-2-0.896-2-2s0.896-2 2-2c1.104 0 2 0.896 2 2s-0.896 2-2 2zM11.333 20c-1.104 0-2-0.896-2-2s0.896-2 2-2c1.104 0 2 0.896 2 2s-0.896 2-2 2z"></path>
</symbol>
<symbol id="icon-creativ" viewBox="0 0 32 32">
<path fill="#fbfbfb" style="fill: var(--color2, #fbfbfb)" d="M14.667 13.667c0.92 0 1.667-0.746 1.667-1.667s-0.746-1.667-1.667-1.667c-0.92 0-1.667 0.746-1.667 1.667s0.746 1.667 1.667 1.667z"></path>
<path fill="#fbfbfb" style="fill: var(--color2, #fbfbfb)" d="M3.267 21.987l3.72-3.72c1.28-1.28 3.347-1.427 4.787-0.347l3.093 2.32 2.64-3.773c0.587-0.84 1.507-1.4 2.52-1.533s2.053 0.16 2.827 0.813l5.773 4.813 0.36 0.32v-11.547c0-3.493-2.84-6.333-6.333-6.333h-13.32c-3.493 0-6.333 2.84-6.333 6.333v12.947l0.267-0.293zM14.667 8.333c2.027 0 3.667 1.64 3.667 3.667s-1.64 3.667-3.667 3.667c-2.027 0-3.667-1.64-3.667-3.667s1.64-3.667 3.667-3.667z"></path>
<path fill="#fbfbfb" style="fill: var(--color2, #fbfbfb)" d="M9.84 27.44l3.893-5.56-3.147-2.36c-0.653-0.493-1.6-0.427-2.173 0.16l-3.693 3.693-1.307 1.427c0.827 2.293 2.92 3.947 5.44 4.16l1-1.507-0.013-0.013z"></path>
<path fill="#fbfbfb" style="fill: var(--color2, #fbfbfb)" d="M27.333 22.080l-5.747-4.787c-0.36-0.307-0.827-0.427-1.28-0.373-0.467 0.067-0.88 0.307-1.147 0.693l-7.667 10.96-0.28 0.427h11.467c3.2 0 5.84-2.4 6.253-5.493l-1.587-1.427h-0.013z"></path>
</symbol>
<symbol id="icon-graduation" viewBox="0 0 32 32">
<path fill="#fbfbfb" style="fill: var(--color2, #fbfbfb)" d="M26 18.33v4.35c0 1.58-0.93 2.99-2.37 3.65-1.75 0.8-4.4 1.67-7.63 1.67s-5.88-0.87-7.64-1.67c-1.43-0.66-2.36-2.070-2.36-3.65v-4.35l7.11 3.25c0.91 0.42 1.89 0.63 2.89 0.63s1.98-0.21 2.89-0.63l7.11-3.25z"></path>
<path fill="#fbfbfb" style="fill: var(--color2, #fbfbfb)" d="M30 16.5v6.5c0 0.55-0.45 1-1 1s-1-0.45-1-1v-5.58l2-0.92z"></path>
<path fill="#fbfbfb" style="fill: var(--color2, #fbfbfb)" d="M13.938 19.764c0.655 0.299 1.358 0.449 2.062 0.449s1.406-0.149 2.062-0.449l12.771-5.838c0.72-0.329 1.167-1.026 1.167-1.819s-0.447-1.491-1.167-1.82l-12.771-5.837c-1.311-0.599-2.812-0.599-4.123 0l-12.772 5.836c-0.72 0.33-1.167 1.027-1.167 1.82s0.447 1.49 1.167 1.82l12.771 5.838z"></path>
</symbol>
<symbol id="icon-creativity-order" viewBox="0 0 32 32">
<path fill="#fbfbfb" style="fill: var(--color2, #fbfbfb)" d="M2.261 1.080l6.649 3.219-4.598 4.599-3.219-6.649c-0.174-0.348-0.1-0.746 0.161-1.007s0.659-0.336 1.007-0.162z"></path>
<path fill="#fbfbfb" style="fill: var(--color2, #fbfbfb)" d="M9.83 14.789l-4.462-4.462 4.971-4.971 4.362 4.362-1.255 1.23c-0.025 0.025-0.497 0.497-1.243 1.292-0.634 0.659-1.467 1.541-2.374 2.548z"></path>
<path fill="#fbfbfb" style="fill: var(--color2, #fbfbfb)" d="M26.334 9.917l-4.387-4.387c1.218-2.684 2.821-3.144 5.469-3.878 0.696-0.199 1.528-0.326 2.422-0.624 0.634-0.211 1.33 0.485 1.119 1.119-0.286 0.882-0.546 1.556-0.744 2.252-0.82 2.759-1.268 4.325-3.878 5.518z"></path>
<path fill="#fbfbfb" style="fill: var(--color2, #fbfbfb)" d="M20.891 15.908c1.839-1.939 3.008-3.48 4.002-4.946l-4.002-4.002c-1.467 0.994-3.008 2.162-4.946 4.002-0.385 0.385-0.808 0.783-1.255 1.23l4.971 4.971c0.448-0.447 0.845-0.87 1.23-1.255zM13.471 13.459c-0.634 0.659-1.466 1.541-2.399 2.573-4.4 4.797-11.443 13.117-9.84 14.72s9.79-5.573 14.587-9.972c1.032-0.932 1.914-1.765 2.573-2.399l-4.922-4.922z"></path>
<path fill="#fbfbfb" style="fill: var(--color2, #fbfbfb)" d="M24.632 19.648l-4.971 4.971-2.598-2.597c1.019-0.92 1.889-1.74 2.535-2.362 0.808-0.758 1.28-1.23 1.305-1.255l1.23-1.255 2.498 2.498z"></path>
<path fill="#fbfbfb" style="fill: var(--color2, #fbfbfb)" d="M20.903 25.863l4.971-4.971 1.243 1.243-4.971 4.971-1.243-1.243z"></path>
<path fill="#fbfbfb" style="fill: var(--color2, #fbfbfb)" d="M30.224 28.97l-1.243 1.243c-1.031 1.031-2.697 1.031-3.728 0l-1.864-1.864 4.971-4.971 1.864 1.864c1.032 1.031 1.032 2.697 0 3.728z"></path>
</symbol>
<symbol id="icon-portfolio" viewBox="0 0 32 32">
<path fill="#fbfbfb" style="fill: var(--color2, #fbfbfb)" d="M22.333 13.666h4.333c0.343 0 0.677 0.035 1 0.1v-9.767c0-1.289-1.044-2.333-2.333-2.333h-10.667c-1.289 0-2.333 1.044-2.333 2.333v0.333h5.667c1.149 0 2.252 0.456 3.064 1.269 0.813 0.812 1.269 1.915 1.269 3.064v5z"></path>
<path fill="#fbfbfb" style="fill: var(--color2, #fbfbfb)" d="M4.333 9.1c0.323-0.065 0.657-0.1 1-0.1h8.628c1.615 0 3.129 0.78 4.068 2.093l1.739 2.433c0.063 0.088 0.164 0.14 0.271 0.14h0.961v-5c0-0.796-0.316-1.559-0.879-2.121s-1.325-0.879-2.121-0.879h-11.333c-1.289 0-2.333 1.045-2.333 2.333v1.1z"></path>
<path fill="#fbfbfb" style="fill: var(--color2, #fbfbfb)" d="M26.667 30.333h-21.333c-2.024 0-3.667-1.643-3.667-3.667v-12.667c0-2.024 1.643-3.667 3.667-3.667 0 0 5.888 0 8.628 0 1.184 0 2.295 0.572 2.984 1.536l1.737 2.433c0.313 0.437 0.819 0.697 1.356 0.697h6.628c2.024 0 3.667 1.643 3.667 3.667v8c0 2.024-1.643 3.667-3.667 3.667zM8 24.999h4c0.552 0 1-0.448 1-1s-0.448-1-1-1h-4c-0.552 0-1 0.448-1 1s0.448 1 1 1zM8 21.666h4c0.552 0 1-0.448 1-1s-0.448-1-1-1h-4c-0.552 0-1 0.448-1 1s0.448 1 1 1z"></path>
</symbol>
<symbol id="icon-youtube-footer" viewBox="0 0 32 32">
<path fill="#fbfbfb" style="fill: var(--color2, #fbfbfb)" d="M30.753 6.673c-1.155-1.373-3.288-1.933-7.361-1.933h-14.784c-4.166 0-6.335 0.596-7.486 2.058-1.122 1.425-1.122 3.525-1.122 6.432v5.54c0 5.631 1.331 8.49 8.608 8.49h14.785c3.532 0 5.489-0.494 6.755-1.706 1.298-1.243 1.852-3.272 1.852-6.784v-5.54c0-3.065-0.087-5.178-1.247-6.557zM20.544 16.765l-6.714 3.509c-0.15 0.078-0.314 0.117-0.478 0.117-0.186 0-0.371-0.050-0.535-0.149-0.309-0.187-0.497-0.522-0.497-0.883v-6.995c0-0.36 0.188-0.695 0.496-0.882s0.692-0.2 1.012-0.034l6.714 3.486c0.342 0.177 0.556 0.53 0.557 0.915s-0.213 0.738-0.554 0.916z"></path>
</symbol>
<symbol id="icon-telegram-footer" viewBox="0 0 32 32">
<path fill="#fbfbfb" style="fill: var(--color2, #fbfbfb)" d="M4.099 12.617c-0.867 0.364-1.405 1.012-1.414 1.929-0.006 0.641 0.427 1.503 1.294 1.855 0.357 0.145 5.373 0.82 5.373 0.82s1.327 4.196 1.806 5.671c0.139 0.427 0.217 0.636 0.521 0.915 0.516 0.472 1.388 0.324 1.765-0.055 0.998-1 2.574-2.543 2.574-2.543l0.664 0.54c0 0 2.947 2.351 4.558 3.457 0.948 0.652 1.607 1.332 2.674 1.336 0.544 0.003 1.416-0.268 1.992-0.928 0.381-0.436 0.625-1.133 0.72-1.759 0.215-1.42 2.736-16.775 2.726-17.312-0.017-0.857-0.738-1.34-1.338-1.335-0.376 0.004-0.687 0.113-1.377 0.324-5.34 1.631-22.184 6.936-22.538 7.084zM24.019 9.209c0 0-7.037 6.125-9.849 8.944-0.901 0.903-0.965 2.452-0.965 2.452l-1.454-4.651 12.268-6.745z"></path>
</symbol>
<symbol id="icon-instagram" viewBox="0 0 32 32">
<path fill="#fbfbfb" style="fill: var(--color2, #fbfbfb)" d="M24 0h-16c-4.4 0-8 3.599-8 8v16c0 4.4 3.6 8 8 8h16c4.4 0 8-3.6 8-8v-16c0-4.401-3.6-8-8-8zM16 22.666c-3.682 0-6.667-2.986-6.667-6.666 0-3.682 2.984-6.667 6.667-6.667 3.681 0 6.667 2.984 6.667 6.667 0 3.681-2.986 6.666-6.667 6.666zM24.667 9.333c-1.106 0-2-0.896-2-2s0.894-2 2-2 2 0.896 2 2c0 1.104-0.894 2-2 2z"></path>
</symbol>
<symbol id="icon-tik-tok" viewBox="0 0 32 32">
<path fill="#fbfbfb" style="fill: var(--color2, #fbfbfb)" d="M29.054 7.029c-3.359 0-6.092-2.733-6.092-6.092 0-0.518-0.42-0.938-0.938-0.938h-5.021c-0.518 0-0.938 0.42-0.938 0.938v20.585c0 1.975-1.607 3.581-3.581 3.581s-3.581-1.607-3.581-3.581c0-1.975 1.606-3.581 3.581-3.581 0.518 0 0.938-0.42 0.938-0.937v-5.021c0-0.518-0.42-0.938-0.938-0.938-5.777 0-10.477 4.7-10.477 10.477s4.7 10.477 10.477 10.477 10.477-4.7 10.477-10.477v-9.112c1.866 0.995 3.942 1.514 6.092 1.514 0.518 0 0.938-0.42 0.938-0.937v-5.021c-0-0.518-0.42-0.938-0.938-0.938z"></path>
</symbol>
<symbol id="icon-menu-burger" viewBox="0 0 30 32">
<path fill="#f7f7f7" style="fill: var(--color1, #f7f7f7)" d="M28.235 14.062h-26.353c-1.040 0-1.882 0.843-1.882 1.882s0.843 1.882 1.882 1.882h26.353c1.040 0 1.882-0.843 1.882-1.882s-0.843-1.882-1.882-1.882z"></path>
<path fill="#f7f7f7" style="fill: var(--color1, #f7f7f7)" d="M1.882 9.043h26.353c1.040 0 1.882-0.843 1.882-1.882s-0.843-1.882-1.882-1.882h-26.353c-1.040 0-1.882 0.843-1.882 1.882s0.843 1.882 1.882 1.882z"></path>
<path fill="#f7f7f7" style="fill: var(--color1, #f7f7f7)" d="M28.235 22.846h-26.353c-1.040 0-1.882 0.843-1.882 1.882s0.843 1.882 1.882 1.882h26.353c1.040 0 1.882-0.843 1.882-1.882s-0.843-1.882-1.882-1.882z"></path>
</symbol>
<symbol id="icon-menu-close" viewBox="0 0 32 32">
<path fill="#f7f7f7" style="fill: var(--color1, #f7f7f7)" d="M18.828 16l12.586-12.585c0.781-0.781 0.781-2.048 0-2.829s-2.048-0.781-2.829 0l-12.585 12.586-12.585-12.586c-0.781-0.781-2.048-0.781-2.829 0s-0.781 2.048 0 2.829l12.586 12.585-12.586 12.585c-0.781 0.781-0.781 2.048 0 2.829s2.048 0.781 2.829 0l12.585-12.586 12.585 12.586c0.781 0.781 2.048 0.781 2.829 0s0.781-2.048 0-2.829l-12.586-12.585z"></path>
</symbol>
<symbol id="icon-arrow" viewBox="0 0 31 32">
<path fill="#fff" style="fill: var(--color1, #fff)" d="M29.594 13.081l-4.954-5.005c-0.119-0.12-0.261-0.215-0.416-0.28s-0.323-0.098-0.492-0.098-0.336 0.033-0.492 0.098c-0.156 0.065-0.297 0.16-0.416 0.28-0.238 0.24-0.372 0.564-0.372 0.902s0.134 0.663 0.372 0.902l4.557 4.595h-26.099c-0.339 0-0.665 0.135-0.905 0.375s-0.375 0.566-0.375 0.905v0c0 0.339 0.135 0.665 0.375 0.905s0.566 0.375 0.905 0.375h26.176l-4.634 4.621c-0.12 0.119-0.215 0.261-0.28 0.416s-0.098 0.323-0.098 0.492 0.033 0.336 0.098 0.492c0.065 0.156 0.16 0.298 0.28 0.416 0.119 0.12 0.261 0.215 0.416 0.28s0.323 0.098 0.492 0.098 0.336-0.033 0.492-0.098c0.156-0.065 0.297-0.16 0.416-0.28l4.954-4.966c0.719-0.72 1.123-1.696 1.123-2.714s-0.404-1.994-1.123-2.714z"></path>
</symbol>
<symbol id="icon-email" viewBox="0 0 32 32">
<path fill="#5671ff" style="fill: var(--color3, #5671ff)" d="M18.674 19.606c-0.796 0.531-1.721 0.811-2.674 0.811s-1.878-0.281-2.674-0.811l-13.113-8.742c-0.073-0.049-0.144-0.099-0.213-0.151v14.325c0 1.642 1.333 2.946 2.946 2.946h26.108c1.642 0 2.946-1.333 2.946-2.946v-14.325c-0.070 0.052-0.14 0.103-0.213 0.151l-13.112 8.742z"></path>
<path fill="#5671ff" style="fill: var(--color3, #5671ff)" d="M1.253 9.304l13.113 8.742c0.496 0.331 1.065 0.496 1.634 0.496s1.138-0.166 1.634-0.496l13.113-8.742c0.785-0.523 1.253-1.398 1.253-2.342 0-1.624-1.321-2.945-2.945-2.945h-26.11c-1.624 0-2.945 1.321-2.945 2.946 0 0.943 0.469 1.818 1.253 2.341z"></path>
</symbol>
<symbol id="icon-down" viewBox="0 0 32 32">
<path fill="#f5f5f5" style="fill: var(--color1, #f5f5f5)" d="M25.415 10.472c-0.186-0.186-0.406-0.333-0.649-0.434s-0.503-0.152-0.766-0.152c-0.263 0-0.523 0.052-0.766 0.152s-0.463 0.248-0.649 0.434l-6.115 6.113c-0.125 0.125-0.295 0.195-0.471 0.195s-0.346-0.070-0.471-0.195l-6.113-6.113c-0.375-0.375-0.884-0.586-1.414-0.586s-1.039 0.21-1.414 0.585c-0.375 0.375-0.586 0.884-0.586 1.414s0.21 1.039 0.585 1.414l6.115 6.115c0.433 0.433 0.948 0.777 1.514 1.012s1.173 0.355 1.786 0.355c0.613 0 1.22-0.121 1.786-0.355s1.081-0.578 1.514-1.012l6.115-6.115c0.375-0.375 0.586-0.884 0.586-1.414s-0.211-1.039-0.586-1.414z"></path>
</symbol>
<symbol id="icon-network" viewBox="0 0 32 32">
<path fill="#f5f5f5" style="fill: var(--color1, #f5f5f5)" d="M16 0c-8.823 0-16 7.177-16 16s7.177 16 16 16c8.823 0 16-7.177 16-16s-7.177-16-16-16zM27.068 9.6h-3.871c-0.427-1.8-1.037-3.537-1.824-5.202 2.39 1.112 4.379 2.935 5.695 5.202zM28.8 16c0 1.107-0.156 2.175-0.421 3.2h-4.595c0.128-1.062 0.216-2.129 0.216-3.2 0-1.073-0.088-2.141-0.216-3.2h4.594c0.265 1.025 0.421 2.093 0.421 3.2zM11.446 19.2c-0.146-1.059-0.246-2.128-0.246-3.2 0-1.070 0.1-2.138 0.246-3.2h9.108c0.146 1.059 0.246 2.127 0.246 3.2 0 1.070-0.1 2.137-0.246 3.2h-9.108zM3.2 16c0-1.107 0.156-2.175 0.421-3.2h4.595c-0.128 1.061-0.216 2.129-0.216 3.2 0 1.072 0.088 2.14 0.216 3.2h-4.594c-0.265-1.025-0.421-2.093-0.421-3.2zM17.11 3.256c1.249 1.979 2.191 4.099 2.801 6.344h-7.823c0.609-2.24 1.551-4.362 2.802-6.344 0.367-0.032 0.735-0.056 1.11-0.056s0.744 0.025 1.11 0.056zM10.626 4.399c-0.789 1.667-1.398 3.404-1.824 5.201h-3.87c1.316-2.267 3.304-4.090 5.694-5.201zM4.932 22.4h3.871c0.427 1.8 1.037 3.537 1.824 5.202-2.39-1.112-4.379-2.935-5.695-5.202zM14.89 28.744c-1.249-1.979-2.19-4.099-2.801-6.344h7.823c-0.609 2.24-1.551 4.362-2.801 6.344-0.367 0.032-0.735 0.056-1.11 0.056s-0.744-0.025-1.11-0.056zM21.374 27.601c0.789-1.667 1.398-3.404 1.824-5.201h3.87c-1.316 2.267-3.305 4.090-5.694 5.201z"></path>
</symbol>
<symbol id="icon-logo_footer" viewBox="0 0 38 32">
<path fill="#5671ff" style="fill: var(--color1, #5671ff)" opacity="0.1" d="M34.884 16c0 8.654-7.099 15.669-15.856 15.669s-15.856-7.015-15.856-15.669c0-8.654 7.099-15.669 15.856-15.669s15.856 7.015 15.856 15.669z"></path>
<path fill="#5671ff" style="fill: var(--color1, #5671ff)" d="M29.876 22.686c-0.36 0.069-7.341 1.319-10.849-3.221-2.788 3.579-7.731 3.691-10.794 3.235-8.911-2.45-8.225-11.766-8.218-11.857 0.010-0.138 0.061-0.27 0.146-0.377s0.2-0.187 0.33-0.227c0.129-0.040 0.267-0.040 0.396-0.001s0.244 0.117 0.331 0.223c0.020 0.028 2.236 2.77 5.098 2.874 1.591 0.069 3.144-0.748 4.541-2.284 1.692-1.373 5.633-2.419 8.17 0.861 0.864-1.124 2.103-1.885 3.48-2.138 1.665-0.189 3.338 0.267 4.69 1.277 1.397 1.535 2.949 2.353 4.541 2.284 2.862-0.104 5.078-2.846 5.098-2.874 0.087-0.105 0.202-0.181 0.331-0.219s0.266-0.037 0.394 0.004 0.242 0.119 0.327 0.225c0.085 0.106 0.138 0.236 0.151 0.372 0.007 0.090 0.693 9.406-8.164 11.843z"></path>
</symbol>
<symbol id="icon-location" viewBox="0 0 32 32">
<path fill="#5671ff" style="fill: var(--color1, #5671ff)" d="M16 0c-3.181 0.004-6.231 1.27-8.481 3.519s-3.515 5.299-3.519 8.481c0 8.615 11.18 19.405 11.655 19.86 0.092 0.090 0.216 0.14 0.345 0.14s0.253-0.050 0.345-0.14c0.475-0.455 11.655-11.245 11.655-19.86-0.004-3.181-1.27-6.231-3.519-8.481s-5.299-3.515-8.481-3.519zM16 17.5c-1.088 0-2.151-0.323-3.056-0.927s-1.609-1.463-2.026-2.468c-0.416-1.005-0.525-2.111-0.313-3.178s0.736-2.047 1.505-2.816c0.769-0.769 1.749-1.293 2.816-1.505s2.173-0.103 3.178 0.313c1.005 0.416 1.864 1.121 2.468 2.026s0.927 1.968 0.927 3.056c-0.001 1.458-0.581 2.857-1.612 3.888s-2.43 1.611-3.888 1.612z"></path>
</symbol>
</defs>
</svg>