<svg aria-hidden="true" style="position: absolute; width: 0; height: 0; overflow: hidden;" version="1.1" xmlns="http://www.w3.org/2000/svg" xmlns:xlink="http://www.w3.org/1999/xlink">
<defs>
<symbol id="icon-favorite" viewBox="0 0 32 32">
<path fill="#fbfbfb" style="fill: var(--color2, #fbfbfb)" d="M26 14c0 5.523-4.477 10-10 10s-10-4.477-10-10c0-5.523 4.477-10 10-10s10 4.477 10 10z"></path>
<path fill="#5671ff" style="fill: var(--color3, #5671ff)" d="M16.014 0h-0.029c-7.316 0-13.25 5.931-13.25 13.25 0 8.181 8.553 16.826 12.716 18.637 0.175 0.076 0.363 0.115 0.553 0.115s0.378-0.039 0.553-0.115c4.162-1.813 12.702-10.457 12.702-18.637 0.003-7.319-5.929-13.25-13.245-13.25zM22.223 12.301c-0.598 0.745-1.223 1.516-1.848 2.302-0.125 0.155-0.193 0.348-0.194 0.547 0 0.976-0.021 1.952-0.063 2.927-0.029 0.596-0.634 1.072-1.166 0.9-0.875-0.281-1.764-0.593-2.671-0.924-0.182-0.066-0.381-0.066-0.563 0-0.907 0.331-1.799 0.642-2.671 0.924-0.532 0.172-1.136-0.304-1.166-0.9-0.042-0.975-0.063-1.951-0.063-2.927-0.001-0.199-0.069-0.392-0.194-0.547-0.625-0.786-1.246-1.557-1.846-2.302-0.369-0.455-0.114-1.125 0.479-1.316 0.965-0.303 1.927-0.611 2.883-0.914 0.193-0.062 0.36-0.185 0.476-0.352 0.578-0.832 1.149-1.669 1.698-2.5 0.072-0.118 0.173-0.215 0.293-0.283s0.256-0.103 0.394-0.103c0.138 0 0.274 0.036 0.394 0.103s0.221 0.165 0.293 0.283c0.549 0.832 1.121 1.669 1.698 2.5 0.116 0.166 0.283 0.29 0.476 0.352 0.956 0.303 1.918 0.611 2.883 0.914 0.587 0.189 0.843 0.861 0.474 1.316z"></path>
</symbol>
<symbol id="icon-logo" viewBox="0 0 38 32">
<path fill="#f5f5f5" style="fill: var(--color1, #f5f5f5)" opacity="0.2" d="M35.2 16c0 8.733-7.163 15.812-16 15.812s-16-7.079-16-15.812c0-8.733 7.163-15.812 16-15.812s16 7.079 16 15.812z"></path>
<path fill="#f5f5f5" style="fill: var(--color1, #f5f5f5)" d="M30.147 22.747c-0.364 0.070-7.408 1.331-10.947-3.25-2.814 3.611-7.802 3.725-10.892 3.264-8.992-2.473-8.3-11.873-8.293-11.964 0.010-0.139 0.062-0.272 0.147-0.381s0.202-0.189 0.333-0.229c0.13-0.040 0.27-0.041 0.4-0.001s0.247 0.118 0.334 0.225c0.021 0.028 2.257 2.795 5.144 2.9 1.606 0.070 3.173-0.755 4.582-2.304 1.707-1.386 5.684-2.441 8.245 0.868 0.872-1.135 2.122-1.902 3.512-2.158 1.68-0.19 3.369 0.27 4.733 1.289 1.41 1.549 2.976 2.375 4.582 2.305 2.888-0.105 5.124-2.872 5.144-2.9 0.088-0.105 0.204-0.182 0.334-0.221s0.268-0.037 0.398 0.004c0.129 0.041 0.244 0.12 0.33 0.227s0.139 0.238 0.152 0.375c0.007 0.091 0.7 9.492-8.238 11.95z"></path>
</symbol>
<symbol id="icon-community" viewBox="0 0 32 32">
<path fill="#fbfbfb" style="fill: var(--color1, #fbfbfb)" d="M16 0c8.837 0 16 7.163 16 16s-7.163 16-16 16c-8.837 0-16-7.163-16-16s7.163-16 16-16z"></path>
<path fill="#5671ff" style="fill: var(--color2, #5671ff)" d="M16 14.286c1.668 0 3.021-1.353 3.021-3.021s-1.352-3.021-3.021-3.021c-1.668 0-3.021 1.352-3.021 3.021s1.352 3.021 3.021 3.021z"></path>
<path fill="#5671ff" style="fill: var(--color2, #5671ff)" d="M22.111 14.286c1.055 0 1.91-0.855 1.91-1.91s-0.855-1.91-1.91-1.91c-1.055 0-1.91 0.855-1.91 1.91s0.855 1.91 1.91 1.91z"></path>
<path fill="#5671ff" style="fill: var(--color2, #5671ff)" d="M9.889 14.286c1.055 0 1.91-0.855 1.91-1.91s-0.855-1.91-1.91-1.91c-1.055 0-1.91 0.855-1.91 1.91s0.855 1.91 1.91 1.91z"></path>
<path fill="#5671ff" style="fill: var(--color2, #5671ff)" d="M11.771 16.001c-0.752-0.616-1.433-0.534-2.302-0.534-1.3 0-2.358 1.051-2.358 2.343v3.792c0 0.561 0.458 1.017 1.021 1.017 2.431 0 2.139 0.044 2.139-0.105 0-2.687-0.318-4.657 1.5-6.514z"></path>
<path fill="#5671ff" style="fill: var(--color2, #5671ff)" d="M16.827 15.48c-1.518-0.127-2.838 0.001-3.976 0.941-1.905 1.526-1.538 3.58-1.538 6.093 0 0.665 0.541 1.216 1.216 1.216 7.329 0 7.621 0.236 8.056-0.726 0.143-0.326 0.104-0.222 0.104-3.336 0-2.473-2.141-4.188-3.861-4.188z"></path>
<path fill="#5671ff" style="fill: var(--color2, #5671ff)" d="M22.531 15.466c-0.874 0-1.551-0.081-2.302 0.534 1.804 1.842 1.5 3.678 1.5 6.514 0 0.15-0.243 0.105 2.102 0.105 0.583 0 1.058-0.473 1.058-1.053v-3.756c0-1.292-1.058-2.343-2.358-2.343z"></path>
</symbol>
<symbol id="icon-link" viewBox="0 0 32 32">
<path d="M18.461 23.021l-4.349 4.349c-2.653 2.582-6.897 2.525-9.479-0.128-2.532-2.602-2.533-6.747-0.001-9.349l4.349-4.353c0.521-0.521 0.52-1.365-0.001-1.886s-1.365-0.52-1.886 0.001l-4.348 4.353c-3.658 3.66-3.657 9.593 0.003 13.251s9.593 3.657 13.251-0.003l4.349-4.349c0.511-0.53 0.497-1.374-0.033-1.885-0.517-0.499-1.336-0.499-1.852 0h-0.004v-0z"></path>
<path d="M29.258 2.748c-1.752-1.764-4.138-2.754-6.625-2.748-2.485-0.007-4.87 0.981-6.623 2.742l-4.355 4.35c-0.521 0.521-0.521 1.365-0.001 1.886s1.365 0.521 1.886 0.001l4.353-4.349c1.254-1.261 2.96-1.968 4.738-1.964 3.702 0.001 6.702 3.003 6.701 6.705-0.001 1.777-0.707 3.481-1.963 4.737l-4.349 4.349c-0.521 0.521-0.521 1.365 0 1.886s1.366 0.521 1.887 0l4.349-4.346c3.653-3.661 3.654-9.588 0.003-13.25z"></path>
<path d="M19.058 11.057l-7.999 7.999c-0.53 0.512-0.544 1.356-0.033 1.885s1.356 0.544 1.885 0.033c0.011-0.011 0.022-0.022 0.033-0.033l7.999-7.999c0.511-0.53 0.497-1.374-0.033-1.885-0.517-0.499-1.336-0.499-1.852 0z"></path>
</symbol>
<symbol id="icon-youtube" viewBox="0 0 43 32">
<path fill="#5671ff" style="fill: var(--color1, #5671ff)" d="M41.004 3.564c-1.54-1.831-4.384-2.578-9.814-2.578h-19.713c-5.555 0-8.447 0.795-9.981 2.744-1.496 1.9-1.496 4.701-1.496 8.576v7.387c0 7.508 1.775 11.32 11.477 11.32h19.713c4.709 0 7.319-0.659 9.007-2.275 1.731-1.657 2.47-4.362 2.47-9.045v-7.387c0-4.087-0.116-6.904-1.663-8.743zM27.392 17.020l-8.951 4.678c-0.2 0.105-0.419 0.156-0.637 0.156-0.247 0-0.494-0.067-0.713-0.199-0.412-0.25-0.663-0.696-0.663-1.177v-9.327c0-0.481 0.251-0.927 0.662-1.176s0.922-0.267 1.349-0.045l8.951 4.648c0.455 0.236 0.741 0.707 0.742 1.22s-0.284 0.984-0.739 1.222z"></path>
</symbol>
<symbol id="icon-telegram" viewBox="0 0 32 32">
<path fill="#5671ff" style="fill: var(--color2, #5671ff)" d="M4.099 12.617c-0.867 0.364-1.405 1.012-1.414 1.929-0.006 0.641 0.427 1.503 1.294 1.855 0.357 0.145 5.373 0.82 5.373 0.82s1.327 4.196 1.806 5.671c0.139 0.427 0.217 0.636 0.521 0.915 0.516 0.472 1.388 0.324 1.765-0.055 0.998-1 2.574-2.543 2.574-2.543l0.664 0.54c0 0 2.947 2.351 4.558 3.457 0.948 0.652 1.607 1.332 2.674 1.336 0.544 0.003 1.416-0.268 1.992-0.928 0.381-0.436 0.625-1.133 0.72-1.759 0.215-1.42 2.736-16.775 2.726-17.312-0.017-0.857-0.738-1.34-1.338-1.335-0.376 0.004-0.687 0.113-1.377 0.324-5.34 1.631-22.184 6.936-22.538 7.084zM24.019 9.209c0 0-7.037 6.125-9.849 8.944-0.901 0.903-0.965 2.452-0.965 2.452l-1.454-4.651 12.268-6.745z"></path>
</symbol>
<symbol id="icon-bots" viewBox="0 0 32 32">
<path fill="#5671ff" style="fill: var(--color2, #5671ff)" d="M26.4 13.269v-5.961c0.781-0.316 1.333-1.079 1.333-1.975 0-1.179-0.954-2.133-2.133-2.133-1.177 0-2.133 0.954-2.133 2.133 0 0.896 0.552 1.659 1.333 1.975v3.971c-2.294-2.357-5.388-3.812-8.8-3.812s-6.505 1.455-8.8 3.813v-3.972c0.781-0.316 1.333-1.079 1.333-1.975 0-1.179-0.954-2.133-2.133-2.133-1.178 0-2.133 0.954-2.133 2.133 0 0.896 0.552 1.659 1.333 1.975v5.962c-1.505 2.273-2.4 5.052-2.4 8.063 0 4.125 5.731 7.467 12.8 7.467 7.071 0 12.8-3.342 12.8-7.467 0-3.012-0.896-5.791-2.4-8.064zM16 23.466c-4.42 0-8-0.955-8-2.133 0-2.5 0.611-4.763 1.6-6.4 4.271 1.475 8.85 1.369 12.8 0 0.99 1.637 1.6 3.9 1.6 6.4 0 1.178-3.582 2.133-8 2.133z"></path>
<path fill="#5671ff" style="fill: var(--color2, #5671ff)" d="M21.334 20c0 0.738-0.596 1.333-1.333 1.333s-1.333-0.596-1.333-1.333c0-0.737 0.596-1.334 1.333-1.334s1.333 0.597 1.333 1.334z"></path>
<path fill="#5671ff" style="fill: var(--color2, #5671ff)" d="M13.333 20c0 0.738-0.596 1.333-1.333 1.333s-1.333-0.596-1.333-1.333c0-0.737 0.596-1.334 1.333-1.334s1.333 0.597 1.333 1.334z"></path>
</symbol>
</defs>
</svg>