<svg aria-hidden="true" style="position: absolute; width: 0; height: 0; overflow: hidden;" version="1.1" xmlns="http://www.w3.org/2000/svg" xmlns:xlink="http://www.w3.org/1999/xlink">
<defs>
<symbol id="icon-favorite" viewBox="0 0 32 32">
<path fill="#fbfbfb" style="fill: var(--color2, #fbfbfb)" d="M26 14c0 5.523-4.477 10-10 10s-10-4.477-10-10c0-5.523 4.477-10 10-10s10 4.477 10 10z"></path>
<path fill="#5671ff" style="fill: var(--color3, #5671ff)" d="M16.014 0h-0.029c-7.316 0-13.25 5.931-13.25 13.25 0 8.181 8.553 16.826 12.716 18.637 0.175 0.076 0.363 0.115 0.553 0.115s0.378-0.039 0.553-0.115c4.162-1.813 12.702-10.457 12.702-18.637 0.003-7.319-5.929-13.25-13.245-13.25zM22.223 12.301c-0.598 0.745-1.223 1.516-1.848 2.302-0.125 0.155-0.193 0.348-0.194 0.547 0 0.976-0.021 1.952-0.063 2.927-0.029 0.596-0.634 1.072-1.166 0.9-0.875-0.281-1.764-0.593-2.671-0.924-0.182-0.066-0.381-0.066-0.563 0-0.907 0.331-1.799 0.642-2.671 0.924-0.532 0.172-1.136-0.304-1.166-0.9-0.042-0.975-0.063-1.951-0.063-2.927-0.001-0.199-0.069-0.392-0.194-0.547-0.625-0.786-1.246-1.557-1.846-2.302-0.369-0.455-0.114-1.125 0.479-1.316 0.965-0.303 1.927-0.611 2.883-0.914 0.193-0.062 0.36-0.185 0.476-0.352 0.578-0.832 1.149-1.669 1.698-2.5 0.072-0.118 0.173-0.215 0.293-0.283s0.256-0.103 0.394-0.103c0.138 0 0.274 0.036 0.394 0.103s0.221 0.165 0.293 0.283c0.549 0.832 1.121 1.669 1.698 2.5 0.116 0.166 0.283 0.29 0.476 0.352 0.956 0.303 1.918 0.611 2.883 0.914 0.587 0.189 0.843 0.861 0.474 1.316z"></path>
</symbol>
<symbol id="icon-logo" viewBox="0 0 38 32">
<path fill="#f5f5f5" style="fill: var(--color1, #f5f5f5)" opacity="0.2" d="M35.2 16c0 8.733-7.163 15.812-16 15.812s-16-7.079-16-15.812c0-8.733 7.163-15.812 16-15.812s16 7.079 16 15.812z"></path>
<path fill="#f5f5f5" style="fill: var(--color1, #f5f5f5)" d="M30.147 22.747c-0.364 0.070-7.408 1.331-10.947-3.25-2.814 3.611-7.802 3.725-10.892 3.264-8.992-2.473-8.3-11.873-8.293-11.964 0.010-0.139 0.062-0.272 0.147-0.381s0.202-0.189 0.333-0.229c0.13-0.040 0.27-0.041 0.4-0.001s0.247 0.118 0.334 0.225c0.021 0.028 2.257 2.795 5.144 2.9 1.606 0.070 3.173-0.755 4.582-2.304 1.707-1.386 5.684-2.441 8.245 0.868 0.872-1.135 2.122-1.902 3.512-2.158 1.68-0.19 3.369 0.27 4.733 1.289 1.41 1.549 2.976 2.375 4.582 2.305 2.888-0.105 5.124-2.872 5.144-2.9 0.088-0.105 0.204-0.182 0.334-0.221s0.268-0.037 0.398 0.004c0.129 0.041 0.244 0.12 0.33 0.227s0.139 0.238 0.152 0.375c0.007 0.091 0.7 9.492-8.238 11.95z"></path>
</symbol>

</defs>
</svg>