<svg width="40" height="30" viewBox="0 0 40 30" fill="none" xmlns="http://www.w3.org/2000/svg">
<path d="M38.4409 3.34132C36.997 1.62493 34.3312 0.924805 29.2401 0.924805H10.7595C5.55187 0.924805 2.8409 1.6701 1.40245 3.49745C0 5.27913 0 7.90429 0 11.5376V18.4626C0 25.5014 1.664 29.0753 10.7595 29.0753H29.2403C33.6552 29.0753 36.1017 28.4575 37.6844 26.9427C39.3075 25.3895 40 22.8533 40 18.4626V11.5376C40 7.70597 39.8915 5.06532 38.4409 3.34132ZM25.6801 15.9562L17.2881 20.3421C17.1005 20.4402 16.8954 20.4888 16.6905 20.4888C16.4585 20.4888 16.227 20.4264 16.0219 20.3022C15.6359 20.0683 15.4001 19.6498 15.4001 19.1985V10.4547C15.4001 10.0042 15.6352 9.58609 16.0205 9.35203C16.4059 9.11797 16.8853 9.10197 17.2852 9.30971L25.6772 13.6674C26.1041 13.8891 26.3723 14.3298 26.3729 14.8107C26.3734 15.292 26.1065 15.7334 25.6801 15.9562Z" fill="#5671FF"/>
</svg>
