<svg width="345" height="284" viewBox="0 0 345 284" fill="none" xmlns="http://www.w3.org/2000/svg">
<ellipse cx="172.538" cy="141.859" rx="143.009" ry="141.327" fill="#F5F5F5" fill-opacity="0.2"/>
<path d="M270.381 202.161C267.132 202.787 204.169 214.057 172.534 173.11C147.384 205.389 102.803 206.402 75.1768 202.286C-5.19777 180.184 0.994322 96.1613 1.05563 95.3474C1.14779 94.1028 1.60726 92.9159 2.37342 91.9435C3.13959 90.971 4.17644 90.2586 5.34718 89.9003C6.51235 89.5382 7.75621 89.5352 8.92306 89.8916C10.0899 90.2479 11.1279 90.9479 11.9071 91.9038C12.091 92.1543 32.0774 116.885 57.888 117.825C72.2411 118.448 86.2442 111.075 98.8417 97.2271C114.099 84.84 149.647 75.4102 172.534 104.99C180.328 94.8487 191.499 87.9859 203.923 85.7056C218.939 84.0039 234.034 88.1146 246.226 97.2259C258.825 111.073 272.827 118.45 287.179 117.825C312.99 116.886 332.976 92.1544 333.16 91.904C333.944 90.961 334.982 90.2741 336.145 89.9289C337.308 89.5836 338.544 89.5952 339.701 89.9622C340.857 90.3292 341.883 91.0354 342.649 91.993C343.416 92.9505 343.889 94.1171 344.012 95.3476C344.073 96.1613 350.265 180.184 270.381 202.161Z" fill="#F5F5F5"/>
<path d="M270.381 202.161C267.132 202.787 204.169 214.057 172.534 173.11C147.384 205.389 102.803 206.402 75.1768 202.286C-5.19777 180.184 0.994322 96.1613 1.05563 95.3474C1.14779 94.1028 1.60726 92.9159 2.37342 91.9435C3.13959 90.971 4.17644 90.2586 5.34718 89.9003C6.51235 89.5382 7.75621 89.5352 8.92306 89.8916C10.0899 90.2479 11.1279 90.9479 11.9071 91.9038C12.091 92.1543 32.0774 116.885 57.888 117.825C72.2411 118.448 86.2442 111.075 98.8417 97.2271C114.099 84.84 149.647 75.4102 172.534 104.99C180.328 94.8487 191.499 87.9859 203.923 85.7056C218.939 84.0039 234.034 88.1146 246.226 97.2259C258.825 111.073 272.827 118.45 287.179 117.825C312.99 116.886 332.976 92.1544 333.16 91.904C333.944 90.961 334.982 90.2741 336.145 89.9289C337.308 89.5836 338.544 89.5952 339.701 89.9622C340.857 90.3292 341.883 91.0354 342.649 91.993C343.416 92.9505 343.889 94.1171 344.012 95.3476C344.073 96.1613 350.265 180.184 270.381 202.161Z" fill="#F5F5F5"/>
</svg>
